<svg width="20" height="18" viewBox="0 0 20 18" fill="none" xmlns="http://www.w3.org/2000/svg">
<path d="M9.75422 8.76686C9.25088 8.76686 8.75883 8.91856 8.34031 9.20277C7.9218 9.48699 7.5956 9.89095 7.40298 10.3636C7.21036 10.8362 7.15996 11.3563 7.25816 11.858C7.35635 12.3598 7.59874 12.8206 7.95466 13.1824C8.31058 13.5441 8.76405 13.7905 9.25773 13.8903C9.7514 13.9901 10.2631 13.9388 10.7281 13.7431C11.1932 13.5473 11.5906 13.2158 11.8703 12.7904C12.1499 12.3651 12.2992 11.865 12.2992 11.3534C12.2992 10.6674 12.0311 10.0095 11.5538 9.52444C11.0765 9.03937 10.4292 8.76686 9.75422 8.76686ZM9.75422 12.2156C9.58644 12.2156 9.42243 12.165 9.28292 12.0703C9.14342 11.9756 9.03468 11.8409 8.97048 11.6834C8.90627 11.5258 8.88947 11.3525 8.9222 11.1852C8.95493 11.018 9.03573 10.8643 9.15437 10.7438C9.27301 10.6232 9.42417 10.5411 9.58873 10.5078C9.75328 10.4745 9.92385 10.4916 10.0789 10.5569C10.2339 10.6221 10.3664 10.7326 10.4596 10.8744C10.5528 11.0162 10.6025 11.1829 10.6025 11.3534C10.6025 11.5821 10.5132 11.8014 10.3541 11.9631C10.195 12.1248 9.97921 12.2156 9.75422 12.2156ZM9.15191 6.79246C9.23259 6.87095 9.32773 6.93248 9.43186 6.97352C9.53341 7.01913 9.6432 7.04269 9.75422 7.04269C9.86524 7.04269 9.97504 7.01913 10.0766 6.97352C10.1807 6.93248 10.2759 6.87095 10.3565 6.79246L12.2992 4.85255C12.4634 4.68562 12.5557 4.45922 12.5557 4.22315C12.5557 3.98708 12.4634 3.76068 12.2992 3.59376C12.135 3.42683 11.9122 3.33305 11.6799 3.33305C11.4476 3.33305 11.2249 3.42683 11.0606 3.59376L10.6025 4.10244V1.0072C10.6025 0.778538 10.5132 0.559238 10.3541 0.397547C10.195 0.235856 9.97921 0.14502 9.75422 0.14502C9.52923 0.14502 9.31346 0.235856 9.15437 0.397547C8.99528 0.559238 8.9059 0.778538 8.9059 1.0072V4.10244L8.44781 3.59376C8.28356 3.42683 8.0608 3.33305 7.82853 3.33305C7.59626 3.33305 7.3735 3.42683 7.20925 3.59376C7.04501 3.76068 6.95274 3.98708 6.95274 4.22315C6.95274 4.45922 7.04501 4.68562 7.20925 4.85255L9.15191 6.79246ZM15.6925 11.3534C15.6925 11.1829 15.6427 11.0162 15.5495 10.8744C15.4563 10.7326 15.3238 10.6221 15.1688 10.5569C15.0138 10.4916 14.8432 10.4745 14.6787 10.5078C14.5141 10.5411 14.3629 10.6232 14.2443 10.7438C14.1257 10.8643 14.0449 11.018 14.0121 11.1852C13.9794 11.3525 13.9962 11.5258 14.0604 11.6834C14.1246 11.8409 14.2334 11.9756 14.3729 12.0703C14.5124 12.165 14.6764 12.2156 14.8442 12.2156C15.0692 12.2156 15.2849 12.1248 15.444 11.9631C15.6031 11.8014 15.6925 11.5821 15.6925 11.3534ZM16.5408 5.31812H13.9958C13.7709 5.31812 13.5551 5.40896 13.396 5.57065C13.2369 5.73234 13.1475 5.95164 13.1475 6.18031C13.1475 6.40897 13.2369 6.62827 13.396 6.78996C13.5551 6.95166 13.7709 7.04249 13.9958 7.04249H16.5408C16.7658 7.04249 16.9816 7.13333 17.1407 7.29502C17.2998 7.45671 17.3891 7.67601 17.3891 7.90468V14.8022C17.3891 15.0308 17.2998 15.2501 17.1407 15.4118C16.9816 15.5735 16.7658 15.6643 16.5408 15.6643H2.96764C2.74265 15.6643 2.52687 15.5735 2.36778 15.4118C2.20869 15.2501 2.11932 15.0308 2.11932 14.8022V7.90468C2.11932 7.67601 2.20869 7.45671 2.36778 7.29502C2.52687 7.13333 2.74265 7.04249 2.96764 7.04249H5.51261C5.7376 7.04249 5.95337 6.95166 6.11246 6.78996C6.27155 6.62827 6.36093 6.40897 6.36093 6.18031C6.36093 5.95164 6.27155 5.73234 6.11246 5.57065C5.95337 5.40896 5.7376 5.31812 5.51261 5.31812H2.96764C2.29267 5.31812 1.64535 5.59064 1.16807 6.07571C0.690798 6.56078 0.422668 7.21868 0.422668 7.90468V14.8022C0.422668 15.4881 0.690798 16.146 1.16807 16.6311C1.64535 17.1162 2.29267 17.3887 2.96764 17.3887H16.5408C17.2158 17.3887 17.8631 17.1162 18.3404 16.6311C18.8177 16.146 19.0858 15.4881 19.0858 14.8022V7.90468C19.0858 7.21868 18.8177 6.56078 18.3404 6.07571C17.8631 5.59064 17.2158 5.31812 16.5408 5.31812ZM3.81596 11.3534C3.81596 11.5239 3.86572 11.6906 3.95893 11.8324C4.05214 11.9742 4.18463 12.0847 4.33965 12.15C4.49466 12.2152 4.66523 12.2323 4.82978 12.199C4.99434 12.1658 5.1455 12.0836 5.26414 11.9631C5.38278 11.8425 5.46358 11.6889 5.49631 11.5216C5.52904 11.3544 5.51224 11.181 5.44803 11.0235C5.38383 10.8659 5.27509 10.7313 5.13559 10.6365C4.99608 10.5418 4.83207 10.4912 4.66428 10.4912C4.4393 10.4912 4.22352 10.5821 4.06443 10.7438C3.90534 10.9054 3.81596 11.1247 3.81596 11.3534Z" fill="white"/>
</svg>
