<svg width="142" height="143" viewBox="0 0 142 143" fill="none" xmlns="http://www.w3.org/2000/svg">
<path d="M65.3316 142.724C55.0556 141.873 44.8847 138.793 35.9196 133.699C26.9544 128.605 19.2066 121.619 13.215 113.227C7.22332 104.835 3.1317 95.239 1.22469 85.1056C-0.682321 74.9722 -0.216338 64.2245 2.31493 54.2288L17.7476 58.3441C15.7916 66.0681 15.6069 74.2913 17.0805 82.1216C18.5541 89.952 21.7158 97.3673 26.3457 103.852C30.9756 110.337 36.9626 115.735 43.8902 119.671C50.8178 123.607 58.6771 126.104 66.6177 126.762L65.3316 142.724Z" fill="#F6DC7D"/>
<path fill-rule="evenodd" clip-rule="evenodd" d="M6.61207 101.309C2.66331 92.5922 0.517692 83.167 0.304163 73.5998C0.090635 64.0327 1.61941 54.498 5.17533 45.6137C8.73125 36.7293 13.9323 28.7587 20.6878 21.9809C27.4434 15.203 34.4146 9.85414 47.2878 4.88355L52.2119 20.1333C43.7822 23.4245 37.644 28.0532 32.4238 33.2906C27.2036 38.528 23.0962 44.7668 20.3484 51.632C17.6007 58.4972 16.2693 65.847 16.4343 73.2398C16.5993 80.6326 18.0869 87.9929 21.1382 94.7287L21.135 94.7301C21.1726 94.8067 21.2092 94.884 21.2446 94.9623C23.0617 98.9736 21.283 103.698 17.2717 105.516C13.2605 107.333 8.5356 105.554 6.71848 101.543C6.68304 101.464 6.64897 101.386 6.61626 101.307L6.61207 101.309Z" fill="#F6DC7D"/>
<path fill-rule="evenodd" clip-rule="evenodd" d="M17.8138 58.4333C16.8691 61.763 13.814 64.209 10.1795 64.226C5.77591 64.2467 2.18934 60.6936 2.1687 56.29C2.16426 55.3419 2.32546 54.4317 2.62512 53.5869C6.53276 38.5955 15.1112 25.4126 27.3087 15.8268C39.7275 6.0671 55.0473 0.914775 70.8421 0.840749L70.9168 16.7877C58.7118 16.8449 46.8744 20.9708 37.2781 28.5124C27.6817 36.054 20.8095 46.6021 17.8688 58.4477L17.8138 58.4333Z" fill="#98D89E"/>
<path fill-rule="evenodd" clip-rule="evenodd" d="M70.9389 16.9445C70.8534 16.9472 70.7676 16.9485 70.6814 16.9485C66.2778 16.9485 62.7079 13.3787 62.7079 8.97501C62.7079 4.57134 66.2778 1.00146 70.6814 1.00146C70.7676 1.00146 70.8534 1.00283 70.9389 1.00554V1.00146C80.5084 1.00146 89.9792 2.93624 98.782 6.68952C107.585 10.4428 115.538 15.9371 122.163 22.8422C128.789 29.7473 133.95 37.9206 137.336 46.871C140.722 55.8214 142.264 65.364 141.868 74.9254C141.473 84.4867 139.149 93.8695 135.035 102.51C130.921 111.15 125.103 118.869 117.93 125.203C110.757 131.538 102.377 136.357 93.2943 139.37C84.2116 142.384 74.3027 143.515 64.7659 142.725L66.5663 126.778C73.9357 127.388 81.1951 126.385 88.2135 124.057C95.2319 121.728 101.707 118.005 107.25 113.11C112.793 108.215 117.289 102.25 120.467 95.5737C123.646 88.8972 125.443 81.6469 125.748 74.2586C126.054 66.8703 124.862 59.4964 122.246 52.5802C119.629 45.664 115.641 39.3483 110.521 34.0125C105.402 28.6768 99.2562 24.4312 92.454 21.5309C85.6518 18.6307 78.3335 16.9485 70.9389 16.9485V16.9445Z" fill="#98D89E"/>
<path fill-rule="evenodd" clip-rule="evenodd" d="M126.024 71.7587C126.021 71.6733 126.02 71.5875 126.02 71.5013C126.02 67.0977 129.59 63.5278 133.993 63.5278C138.397 63.5278 141.967 67.0977 141.967 71.5013C141.967 71.5875 141.966 71.6733 141.963 71.7587L141.967 71.7587C141.967 81.3283 140.032 90.799 136.279 99.6018C132.525 108.405 127.199 116.459 120.293 123.084C113.388 129.71 105.362 134.824 96.4114 138.21C87.4611 141.597 78.9038 143.592 65.1266 142.808L66.9339 126.885C75.9705 127.366 83.4718 125.682 90.388 123.066C97.3043 120.449 103.62 116.461 108.956 111.341C114.292 106.222 118.537 100.076 121.437 93.2739C124.338 86.4717 126.02 79.1534 126.02 71.7587L126.024 71.7587Z" fill="#EE8484"/>
<path d="M65.7318 142.8C61.1577 142.8 57.4497 139.197 57.4497 134.752C57.4497 130.306 61.1577 126.703 65.7318 126.703C70.306 126.703 74.014 130.306 74.014 134.752C74.014 139.197 70.306 142.8 65.7318 142.8Z" fill="#EE8484"/>
</svg>
