<svg width="51" height="48" viewBox="0 0 51 48" fill="none" xmlns="http://www.w3.org/2000/svg">
<path d="M21.8235 22.3605C21.3695 22.3237 20.9145 22.4192 20.5181 22.6348C20.1216 22.8503 19.8022 23.1757 19.6015 23.5683C19.4009 23.961 19.3285 24.4027 19.3936 24.8356C19.4588 25.2685 19.6587 25.6724 19.9669 25.9944C20.2752 26.3165 20.6776 26.5417 21.1214 26.6406C21.5652 26.7394 22.0297 26.7074 22.4543 26.5486C22.8788 26.3898 23.2435 26.1117 23.5006 25.7506C23.7577 25.3896 23.8953 24.9624 23.8954 24.525C23.9075 24.2523 23.8636 23.9799 23.766 23.7234C23.6684 23.467 23.5192 23.2315 23.3267 23.0305C23.1343 22.8295 22.9025 22.6668 22.6446 22.5519C22.3866 22.4369 22.1076 22.3719 21.8235 22.3605ZM29.2376 22.3605C28.7836 22.3237 28.3286 22.4192 27.9321 22.6348C27.5357 22.8503 27.2162 23.1757 27.0156 23.5683C26.815 23.961 26.7425 24.4027 26.8077 24.8356C26.8729 25.2685 27.0727 25.6724 27.381 25.9944C27.6893 26.3165 28.0916 26.5417 28.5354 26.6406C28.9792 26.7394 29.4438 26.7074 29.8683 26.5486C30.2928 26.3898 30.6575 26.1117 30.9147 25.7506C31.1718 25.3896 31.3094 24.9624 31.3094 24.525C31.3216 24.2523 31.2776 23.9799 31.1801 23.7234C31.0825 23.467 30.9332 23.2315 30.7408 23.0305C30.5484 22.8295 30.3166 22.6668 30.0586 22.5519C29.8007 22.4369 29.5217 22.3719 29.2376 22.3605Z" fill="white"/>
<path d="M39.1094 6H11.8906C11.3424 6.00118 10.7999 6.10603 10.2939 6.30856C9.78791 6.51109 9.32845 6.80734 8.94176 7.18037C8.55507 7.5534 8.24873 7.99591 8.04022 8.48263C7.83172 8.96935 7.72514 9.49073 7.72658 10.017V36.381C7.72514 36.9073 7.83172 37.4287 8.04022 37.9154C8.24873 38.4021 8.55507 38.8446 8.94176 39.2176C9.32845 39.5907 9.78791 39.8869 10.2939 40.0894C10.7999 40.292 11.3424 40.3968 11.8906 40.398H34.925L33.8485 36.7905L36.4485 39.111L38.9063 41.295L43.2735 45V10.017C43.2749 9.49073 43.1683 8.96935 42.9598 8.48263C42.7513 7.99591 42.445 7.5534 42.0583 7.18037C41.6716 6.80734 41.2121 6.51109 40.7062 6.30856C40.2002 6.10603 39.6576 6.00118 39.1094 6ZM31.2688 31.467C31.2688 31.467 30.5375 30.6285 29.9281 29.8875C31.4005 29.5547 32.7028 28.7327 33.6047 27.567C32.8738 28.0339 32.0902 28.4199 31.2688 28.7175C30.3238 29.1047 29.3355 29.3861 28.3235 29.556C26.5838 29.8635 24.7997 29.8569 23.0625 29.5365C22.0427 29.3449 21.0432 29.0643 20.0766 28.698C19.5671 28.5099 19.0716 28.2884 18.5938 28.035C18.5328 27.996 18.4719 27.9765 18.411 27.9375C18.3804 27.9229 18.3529 27.9031 18.3297 27.879C18.1348 27.7771 17.9451 27.6664 17.761 27.5475C18.6302 28.6888 19.8876 29.5027 21.3156 29.8485C20.7063 30.5895 19.9547 31.467 19.9547 31.467C18.7481 31.4982 17.552 31.2442 16.4717 30.7274C15.3913 30.2105 14.4599 29.4466 13.7594 28.503C13.8253 24.5498 14.8255 20.6626 16.6844 17.1345C18.3202 15.9011 20.3146 15.1856 22.3922 15.087L22.5953 15.321C20.6407 15.7854 18.8167 16.6575 17.2531 17.8755C17.2531 17.8755 17.7 17.6415 18.4516 17.31C19.9117 16.6702 21.4678 16.2556 23.0625 16.0815C23.1762 16.0589 23.2918 16.0459 23.4078 16.0425C24.769 15.8723 26.1465 15.8592 27.511 16.0035C29.6566 16.2387 31.7337 16.8747 33.625 17.8755C32.1407 16.7156 30.4167 15.8715 28.5672 15.399L28.8516 15.087C30.9291 15.1856 32.9235 15.9011 34.5594 17.1345C36.4183 20.6626 37.4184 24.5498 37.4844 28.503C36.7782 29.4457 35.8428 30.2085 34.7595 30.7251C33.6763 31.2416 32.4779 31.4963 31.2688 31.467Z" fill="white"/>
</svg>
