<svg width="45" height="44" viewBox="0 0 45 44" fill="none" xmlns="http://www.w3.org/2000/svg">
<path fill-rule="evenodd" clip-rule="evenodd" d="M22.4606 0.00013472C17.2463 0.000855345 12.2023 1.90663 8.2309 5.37654C4.25953 8.84645 1.61984 13.6541 0.784038 18.9396C-0.0517666 24.225 0.970836 29.6435 3.66892 34.2256C6.367 38.8077 10.5646 42.2546 15.5107 43.9497C16.6089 44.1592 17.0795 43.4664 17.0795 42.8703V39.036C10.9768 40.3893 9.69038 36.0072 9.69038 36.0072C9.26123 34.6263 8.35801 33.4525 7.14889 32.7046C5.15649 31.319 7.30577 31.3352 7.30577 31.3352C8.00171 31.4361 8.66598 31.6991 9.24784 32.1039C9.82969 32.5088 10.3138 33.0449 10.6631 33.6712C11.2707 34.7904 12.2864 35.6161 13.4867 35.9665C14.687 36.317 15.9737 36.1635 17.0638 35.54C17.1524 34.3969 17.6432 33.326 18.4444 32.5273C13.5811 31.9474 8.45101 30.0141 8.45101 21.3788C8.41545 19.1361 9.2248 16.9659 10.7101 15.3213C10.0378 13.3787 10.1164 11.2453 10.9298 9.36036C10.9298 9.36036 12.7653 8.74816 16.9697 11.6642C20.5646 10.6572 24.3565 10.6572 27.9515 11.6642C32.1402 8.74816 33.9757 9.36036 33.9757 9.36036C34.7891 11.2453 34.8677 13.3787 34.1954 15.3213C35.6807 16.9659 36.49 19.1361 36.4545 21.3788C36.4545 30.0463 31.3244 31.9474 26.4297 32.5112C26.954 33.057 27.3584 33.7118 27.6154 34.4316C27.8725 35.1514 27.9764 35.9194 27.9201 36.6839V42.8703C27.9201 43.6114 28.3123 44.1753 29.4889 43.9497C34.4415 42.2525 38.6434 38.799 41.3411 34.2084C44.0388 29.6178 45.0557 24.1905 44.2096 18.8997C43.3635 13.6089 40.7097 8.80065 36.7241 5.33719C32.7384 1.87373 27.6817 -0.0183883 22.4606 0.00013472Z" fill="white"/>
</svg>
