<svg width="18" height="18" viewBox="0 0 18 18" fill="none" xmlns="http://www.w3.org/2000/svg">
<path d="M16.9271 9.24009C17.2736 8.78214 17.4655 8.22104 17.4655 7.63725C17.4655 6.71103 16.9477 5.83432 16.1143 5.34542C15.8998 5.21958 15.6555 5.15335 15.4068 5.15358H10.46L10.5838 2.61833C10.6127 2.00566 10.3961 1.42393 9.97526 0.980421C9.76874 0.761816 9.51958 0.587887 9.24318 0.46938C8.96679 0.350874 8.66902 0.290309 8.3683 0.291428C7.29561 0.291428 6.3467 1.01343 6.06202 2.04692L4.29003 8.46239H1.62276C1.25763 8.46239 0.962646 8.75738 0.962646 9.12251V16.6313C0.962646 16.9964 1.25763 17.2914 1.62276 17.2914H14.0267C14.2165 17.2914 14.4021 17.2543 14.5734 17.18C15.5553 16.7613 16.1886 15.802 16.1886 14.7376C16.1886 14.4777 16.1514 14.2219 16.0772 13.9743C16.4237 13.5164 16.6156 12.9553 16.6156 12.3715C16.6156 12.1116 16.5785 11.8558 16.5042 11.6082C16.8508 11.1503 17.0426 10.5892 17.0426 10.0054C17.0385 9.74549 17.0013 9.48763 16.9271 9.24009ZM2.4479 15.8062V9.94765H4.11881V15.8062H2.4479ZM15.5759 8.52428L15.1241 8.91622L15.4109 9.44019C15.5053 9.61279 15.5543 9.80659 15.5532 10.0033C15.5532 10.3437 15.4047 10.6676 15.1489 10.8904L14.6971 11.2823L14.9839 11.8063C15.0783 11.9789 15.1273 12.1727 15.1262 12.3694C15.1262 12.7098 14.9777 13.0337 14.7219 13.2565L14.2701 13.6484L14.5569 14.1724C14.6513 14.345 14.7003 14.5388 14.6992 14.7355C14.6992 15.1976 14.4269 15.6143 14.0061 15.8041H5.43904V9.88164L7.49158 2.44505C7.54451 2.25444 7.65812 2.08628 7.81521 1.96605C7.9723 1.84581 8.16429 1.78006 8.36211 1.77875C8.51888 1.77875 8.6736 1.82413 8.79737 1.91696C9.00159 2.06961 9.11092 2.30065 9.09855 2.54613L8.90051 6.63883H15.3861C15.7533 6.86368 15.9802 7.24325 15.9802 7.63725C15.9802 7.97762 15.8317 8.29943 15.5759 8.52428Z" fill="white"/>
</svg>
