<svg width="49" height="48" viewBox="0 0 49 48" fill="none" xmlns="http://www.w3.org/2000/svg">
<path d="M39.4666 6H8.86663C7.36663 6 6.16663 7.2 6.16663 8.55V39.3C6.16663 40.65 7.36663 41.85 8.86663 41.85H39.4666C40.9666 41.85 42.1666 40.65 42.1666 39.3V8.55C42.1666 7.2 40.9666 6 39.4666 6ZM16.8166 36.6H11.5666V19.5H16.8166V36.6ZM14.2666 17.1C12.6166 17.1 11.1166 15.75 11.1166 13.95C11.1166 12.15 12.4666 10.8 14.2666 10.8C15.9166 10.8 17.4166 12.15 17.4166 13.95C17.4166 15.75 15.9166 17.1 14.2666 17.1ZM36.9166 36.45H31.6666V28.05C31.6666 26.1 31.6666 23.4 28.8166 23.4C25.9666 23.4 25.6666 25.65 25.6666 27.75V36.3H20.4166V19.5H25.3666V21.75H25.5166C26.2666 20.4 28.0666 18.9 30.6166 18.9C36.0166 18.9 37.0666 22.5 37.0666 27.15V36.45H36.9166Z" fill="white"/>
</svg>
