<svg width="21" height="14" viewBox="0 0 21 14" fill="none" xmlns="http://www.w3.org/2000/svg">
<path d="M10.2074 9.33443C11.1047 8.73839 11.7863 7.86931 12.1512 6.8558C12.5162 5.84229 12.5452 4.7382 12.2339 3.70694C11.9226 2.67568 11.2875 1.77204 10.4227 1.12975C9.55794 0.487462 8.50934 0.140656 7.43212 0.140656C6.3549 0.140656 5.30629 0.487462 4.4415 1.12975C3.5767 1.77204 2.94166 2.67568 2.63036 3.70694C2.31906 4.7382 2.34804 5.84229 2.71301 6.8558C3.07798 7.86931 3.75955 8.73839 4.65686 9.33443C3.12725 9.89867 1.80523 10.9144 0.866027 12.2471C0.814788 12.3189 0.778252 12.4001 0.758524 12.486C0.738796 12.572 0.736264 12.661 0.751075 12.7479C0.765886 12.8349 0.797746 12.918 0.844823 12.9926C0.891899 13.0672 0.953262 13.1317 1.02538 13.1825C1.09749 13.2332 1.17894 13.2693 1.26502 13.2884C1.35111 13.3076 1.44014 13.3095 1.52698 13.2941C1.61382 13.2788 1.69676 13.2464 1.77103 13.1988C1.84529 13.1512 1.90942 13.0894 1.95971 13.017C2.57691 12.139 3.39631 11.4224 4.34873 10.9277C5.30115 10.4329 6.35862 10.1747 7.43186 10.1746C8.5051 10.1746 9.56259 10.4328 10.515 10.9275C11.4675 11.4221 12.2869 12.1387 12.9042 13.0167C12.9547 13.0886 13.0189 13.1498 13.0931 13.1969C13.1673 13.244 13.2501 13.276 13.3367 13.2911C13.4233 13.3062 13.512 13.304 13.5977 13.2848C13.6835 13.2656 13.7646 13.2296 13.8365 13.179C13.9083 13.1284 13.9695 13.0642 14.0165 12.9899C14.0635 12.9157 14.0954 12.8329 14.1104 12.7463C14.1254 12.6597 14.1232 12.5709 14.1038 12.4852C14.0845 12.3995 14.0485 12.3184 13.9978 12.2466C13.0586 10.9142 11.7368 9.89855 10.2074 9.33435V9.33443ZM3.75385 5.15897C3.75385 4.43149 3.96958 3.72034 4.37374 3.11546C4.77791 2.51058 5.35237 2.03913 6.02448 1.76074C6.69659 1.48234 7.43616 1.4095 8.14966 1.55143C8.86317 1.69335 9.51857 2.04367 10.033 2.55808C10.5474 3.07249 10.8977 3.72788 11.0396 4.44139C11.1816 5.15489 11.1087 5.89446 10.8303 6.56657C10.5519 7.23868 10.0805 7.81314 9.47559 8.21731C8.87071 8.62148 8.15956 8.8372 7.43208 8.8372C6.45689 8.83609 5.52196 8.44821 4.8324 7.75865C4.14284 7.06909 3.75496 6.13416 3.75385 5.15897ZM20.6509 13.1785C20.5791 13.2291 20.4981 13.265 20.4124 13.2843C20.3267 13.3035 20.2381 13.3057 20.1515 13.2907C20.065 13.2756 19.9823 13.2437 19.9081 13.1967C19.8339 13.1497 19.7697 13.0886 19.7191 13.0168C19.1011 12.1396 18.2816 11.4236 17.3293 10.929C16.3771 10.4345 15.32 10.1758 14.247 10.1747C14.0696 10.1747 13.8995 10.1043 13.7741 9.97886C13.6487 9.85344 13.5782 9.68334 13.5782 9.50597C13.5782 9.3286 13.6487 9.1585 13.7741 9.03308C13.8995 8.90766 14.0696 8.8372 14.247 8.8372C14.7722 8.83661 15.2913 8.72353 15.7692 8.50558C16.2471 8.28762 16.6727 7.96984 17.0175 7.57362C17.3624 7.17739 17.6183 6.71191 17.7682 6.2085C17.9181 5.70508 17.9584 5.17541 17.8864 4.65511C17.8145 4.13481 17.6319 3.63596 17.351 3.19211C17.0702 2.74826 16.6975 2.36971 16.2581 2.08194C15.8187 1.79416 15.3228 1.60383 14.8037 1.52375C14.2845 1.44367 13.7543 1.4757 13.2486 1.61768C13.0781 1.66497 12.8958 1.64276 12.7416 1.55591C12.5875 1.46907 12.474 1.32468 12.4261 1.15435C12.3782 0.984021 12.3997 0.801645 12.486 0.647162C12.5723 0.49268 12.7162 0.378681 12.8864 0.330133C14.0368 0.00554594 15.2654 0.102571 16.3506 0.603721C17.4359 1.10487 18.3064 1.97718 18.8053 3.06344C19.3043 4.14969 19.3988 5.37844 19.0718 6.52822C18.7449 7.67801 18.018 8.6732 17.0222 9.33443C18.5516 9.89861 19.8735 10.9142 20.8127 12.2467C20.9148 12.3917 20.9552 12.5713 20.9248 12.7461C20.8945 12.9208 20.796 13.0764 20.6509 13.1785Z" fill="white"/>
</svg>
