<svg width="34" height="33" viewBox="0 0 34 33" fill="none" xmlns="http://www.w3.org/2000/svg">
<path fill-rule="evenodd" clip-rule="evenodd" d="M17 0.00491333C17.8835 0.0049078 18.5997 0.721096 18.5997 1.60456L18.5997 14.7097L31.7048 14.7096C32.5883 14.7096 33.3045 15.4258 33.3045 16.3093C33.3045 17.1927 32.5883 17.9089 31.7048 17.9089L18.5998 17.909L18.5998 31.0139C18.5998 31.8974 17.8836 32.6136 17.0002 32.6136C16.1167 32.6136 15.4005 31.8974 15.4005 31.0139L15.4004 17.909L2.29533 17.9089C1.41186 17.9089 0.695673 17.1927 0.695679 16.3092C0.695685 15.4258 1.41188 14.7096 2.29535 14.7096L15.4004 14.7097L15.4003 1.60458C15.4003 0.721116 16.1165 0.00491896 17 0.00491333Z" fill="#999CA0"/>
</svg>
