<svg width="16" height="18" viewBox="0 0 16 18" fill="none" xmlns="http://www.w3.org/2000/svg">
<path d="M3.8716 4.61894C4.04968 4.79554 4.29033 4.89462 4.54113 4.89462C4.79194 4.89462 5.03259 4.79554 5.21067 4.61894C5.29837 4.53202 5.36798 4.42859 5.41548 4.31462C5.46299 4.20065 5.48745 4.0784 5.48745 3.95493C5.48745 3.83145 5.46299 3.7092 5.41548 3.59523C5.36798 3.48127 5.29837 3.37784 5.21067 3.29092C5.03259 3.11432 4.79194 3.01523 4.54113 3.01523C4.29033 3.01523 4.04968 3.11432 3.8716 3.29092C3.50304 3.65824 3.50304 4.25284 3.8716 4.61894ZM14.7083 10.1472C14.9379 9.91971 15.1202 9.64894 15.2446 9.35057C15.369 9.05221 15.433 8.73215 15.433 8.40889C15.433 8.08563 15.369 7.76558 15.2446 7.46721C15.1202 7.16884 14.9379 6.89808 14.7083 6.67055L8.86058 0.859695C8.39809 0.400847 7.77372 0.142272 7.12223 0.139787L3.11238 0.122588C2.78631 0.120311 2.46304 0.182732 2.16126 0.306237C1.85948 0.429742 1.5852 0.611878 1.35429 0.842102C1.12338 1.07233 0.940434 1.34606 0.816033 1.64747C0.691631 1.94888 0.628248 2.27197 0.629556 2.59804L0.65904 6.7418C0.664354 7.38827 0.924874 8.00645 1.38386 8.46172L7.14558 14.1866C7.61073 14.6474 8.239 14.9059 8.89375 14.9059C9.54849 14.9059 10.1768 14.6474 10.6419 14.1866L14.7083 10.1472ZM13.8336 7.53911C13.9484 7.65287 14.0395 7.78825 14.1017 7.93744C14.1639 8.08662 14.1959 8.24665 14.1959 8.40828C14.1959 8.56991 14.1639 8.72993 14.1017 8.87912C14.0395 9.0283 13.9484 9.16368 13.8336 9.27745L9.76722 13.3192C9.28441 13.7984 8.50185 13.7984 8.01905 13.3192L2.25733 7.59316C2.02823 7.36536 1.89842 7.05627 1.89615 6.7332L1.86544 2.58944C1.86462 2.42628 1.89621 2.26458 1.95839 2.11373C2.02056 1.96287 2.11208 1.82587 2.22762 1.71067C2.34317 1.59547 2.48044 1.50436 2.63148 1.44263C2.78251 1.38091 2.9443 1.3498 3.10746 1.3511L7.11732 1.3683C7.44327 1.36938 7.75571 1.49868 7.98711 1.72825L13.8348 7.53911H13.8336ZM15.3692 10.8721C15.5343 11.3137 15.5687 11.7935 15.4685 12.2543C15.3683 12.715 15.1377 13.1371 14.8041 13.4704L12.3913 15.8832C11.935 16.3395 11.3933 16.7015 10.7971 16.9484C10.2008 17.1954 9.56182 17.3225 8.91647 17.3225C8.27113 17.3225 7.63211 17.1954 7.03589 16.9484C6.43968 16.7015 5.89795 16.3395 5.44163 15.8832L1.16396 11.6055C0.818274 11.2602 0.623843 10.7918 0.623413 10.3033V9.34502L5.44163 14.1632C5.5264 14.248 5.61362 14.3291 5.70208 14.4053L6.31019 15.0146C6.65243 15.3569 7.05875 15.6284 7.50594 15.8137C7.95313 15.9989 8.43243 16.0943 8.91647 16.0943C9.40052 16.0943 9.87982 15.9989 10.327 15.8137C10.7742 15.6284 11.1805 15.3569 11.5228 15.0146L12.1358 14.4016C12.2237 14.3251 12.3089 14.2456 12.3913 14.1632L14.8041 11.7504C15.0535 11.5017 15.2462 11.2021 15.3692 10.8721Z" fill="white"/>
</svg>
