<svg width="43" height="42" viewBox="0 0 43 42" fill="none" xmlns="http://www.w3.org/2000/svg">
<path d="M21.8334 0.5C10.2365 0.5 0.833374 9.67924 0.833374 21C0.833374 32.3208 10.2365 41.5 21.8334 41.5C33.4302 41.5 42.8334 32.3208 42.8334 21C42.8334 9.67924 33.4302 0.5 21.8334 0.5ZM31.9256 15.9528C31.9396 16.1679 31.9396 16.3921 31.9396 16.6117C31.9396 23.3291 26.699 31.067 17.1224 31.067C14.1693 31.067 11.4318 30.2296 9.12556 28.7882C9.54744 28.8339 9.95056 28.8522 10.3818 28.8522C12.8193 28.8522 15.0599 28.0469 16.8459 26.6833C14.5584 26.6375 12.6365 25.1732 11.9802 23.1598C12.7818 23.2742 13.5037 23.2742 14.3287 23.0683C13.1508 22.8347 12.0922 22.2102 11.3325 21.301C10.5729 20.3918 10.1591 19.2539 10.1615 18.0806V18.0165C10.8506 18.3963 11.6615 18.6297 12.5099 18.6617C11.7967 18.1977 11.2118 17.569 10.807 16.8315C10.4023 16.094 10.1902 15.2703 10.1896 14.4336C10.1896 13.4864 10.4427 12.6215 10.8974 11.8711C12.2048 13.4422 13.8362 14.7271 15.6856 15.6424C17.5349 16.5577 19.5609 17.0828 21.6318 17.1837C20.8959 13.7289 23.5396 10.933 26.7178 10.933C28.2178 10.933 29.5677 11.5462 30.5193 12.5346C31.6959 12.3195 32.8209 11.8894 33.824 11.3128C33.4349 12.4888 32.6193 13.4818 31.5365 14.1087C32.5865 13.9989 33.599 13.7152 34.5365 13.3171C33.8287 14.3329 32.9427 15.2344 31.9256 15.9528Z" fill="white"/>
</svg>
